<svg width="21" height="20" viewBox="0 0 21 20" fill="none" xmlns="http://www.w3.org/2000/svg">
<path d="M18.6746 3.28341C17.3913 6.48341 14.1746 10.8334 11.4829 12.9917L9.84128 14.3084C9.63294 14.4584 9.42461 14.5917 9.19128 14.6834C9.19128 14.5334 9.18294 14.3667 9.15794 14.2084C9.06628 13.5084 8.74961 12.8584 8.19128 12.3001C7.62461 11.7334 6.93294 11.4001 6.22461 11.3084C6.05794 11.3001 5.89128 11.2834 5.72461 11.3001C5.81628 11.0417 5.95794 10.8001 6.13294 10.6001L7.43294 8.95841C9.58294 6.26675 13.9496 3.03341 17.1413 1.75841C17.6329 1.57508 18.1079 1.70841 18.4079 2.01675C18.7246 2.32508 18.8746 2.80008 18.6746 3.28341Z" stroke="#6D319A" stroke-width="1.25" stroke-linecap="round" stroke-linejoin="round"/>
<path d="M9.19173 14.6834C9.19173 15.6 8.84173 16.475 8.1834 17.1417C7.67507 17.65 6.9834 18 6.1584 18.1084L4.1084 18.3334C2.99173 18.4584 2.0334 17.5084 2.16673 16.375L2.39173 14.325C2.59173 12.5 4.11673 11.3334 5.7334 11.3C5.90007 11.2917 6.07507 11.3 6.2334 11.3084C6.94173 11.4 7.6334 11.725 8.20006 12.3C8.7584 12.8584 9.07506 13.5084 9.16673 14.2084C9.17506 14.3667 9.19173 14.525 9.19173 14.6834Z" stroke="#6D319A" stroke-width="1.25" stroke-linecap="round" stroke-linejoin="round"/>
<path d="M12.3674 12.0583C12.3674 9.88331 10.6008 8.11664 8.42578 8.11664" stroke="#6D319A" stroke-width="1.25" stroke-linecap="round" stroke-linejoin="round"/>
</svg>
