<svg width="25" height="24" viewBox="0 0 25 24" fill="none" xmlns="http://www.w3.org/2000/svg">
<path d="M7.26017 22H17.7402C20.5002 22 21.6002 20.31 21.7302 18.25L22.2502 9.99C22.3902 7.83 20.6702 6 18.5002 6C17.8902 6 17.3302 5.65 17.0502 5.11L16.3302 3.66C15.8702 2.75 14.6702 2 13.6502 2H11.3602C10.3302 2 9.13017 2.75 8.67017 3.66L7.95017 5.11C7.67017 5.65 7.11017 6 6.50017 6C4.33017 6 2.61017 7.83 2.75017 9.99L3.27017 18.25C3.39017 20.31 4.50017 22 7.26017 22Z" stroke="white" stroke-width="2" stroke-linecap="round" stroke-linejoin="round"/>
<path d="M11 8H14" stroke="white" stroke-width="2" stroke-linecap="round" stroke-linejoin="round"/>
<path d="M12.5 18C14.29 18 15.75 16.54 15.75 14.75C15.75 12.96 14.29 11.5 12.5 11.5C10.71 11.5 9.25 12.96 9.25 14.75C9.25 16.54 10.71 18 12.5 18Z" stroke="white" stroke-width="2" stroke-linecap="round" stroke-linejoin="round"/>
</svg>
