<svg width="16" height="16" viewBox="0 0 16 16" fill="none" xmlns="http://www.w3.org/2000/svg">
<path d="M8 1.33325V5.99992L9.33333 4.66659" stroke="#F20BB5" stroke-linecap="round" stroke-linejoin="round"/>
<path d="M7.99935 6.00008L6.66602 4.66675" stroke="#F20BB5" stroke-linecap="round" stroke-linejoin="round"/>
<path d="M1.32031 8.66675H4.26031C4.51365 8.66675 4.74031 8.80675 4.85365 9.03341L5.63365 10.5934C5.86031 11.0467 6.32031 11.3334 6.82698 11.3334H9.18031C9.68698 11.3334 10.147 11.0467 10.3736 10.5934L11.1536 9.03341C11.267 8.80675 11.5003 8.66675 11.747 8.66675H14.6536" stroke="#F20BB5" stroke-linecap="round" stroke-linejoin="round"/>
<path d="M4.66732 2.75342C2.30732 3.10008 1.33398 4.48675 1.33398 7.33342V10.0001C1.33398 13.3334 2.66732 14.6668 6.00065 14.6668H10.0007C13.334 14.6668 14.6673 13.3334 14.6673 10.0001V7.33342C14.6673 4.48675 13.694 3.10008 11.334 2.75342" stroke="#F20BB5" stroke-linecap="round" stroke-linejoin="round"/>
</svg>
