<svg width="14" height="14" viewBox="0 0 14 14" fill="none" xmlns="http://www.w3.org/2000/svg">
<path d="M9.91602 7.81665V9.56665C9.91602 11.9 8.98268 12.8333 6.64935 12.8333H4.43268C2.09935 12.8333 1.16602 11.9 1.16602 9.56665V7.34998C1.16602 5.01665 2.09935 4.08331 4.43268 4.08331H6.18268" stroke="white" stroke-linecap="round" stroke-linejoin="round"/>
<path d="M9.91693 7.81665H8.05026C6.65026 7.81665 6.18359 7.34998 6.18359 5.94998V4.08331L9.91693 7.81665Z" stroke="white" stroke-linecap="round" stroke-linejoin="round"/>
<path d="M6.76758 1.16669H9.10091" stroke="white" stroke-linecap="round" stroke-linejoin="round"/>
<path d="M4.08398 2.91669C4.08398 1.94835 4.86565 1.16669 5.83398 1.16669H7.36232" stroke="white" stroke-linecap="round" stroke-linejoin="round"/>
<path d="M12.8325 4.66669V8.27752C12.8325 9.18169 12.0975 9.91669 11.1934 9.91669" stroke="white" stroke-linecap="round" stroke-linejoin="round"/>
<path d="M12.834 4.66669H11.084C9.77148 4.66669 9.33398 4.22919 9.33398 2.91669V1.16669L12.834 4.66669Z" stroke="white" stroke-linecap="round" stroke-linejoin="round"/>
</svg>
