<svg width="25" height="24" viewBox="0 0 25 24" fill="none" xmlns="http://www.w3.org/2000/svg">
<path d="M19.5 2C19.5 1.44772 19.0523 1 18.5 1H15.5C13.9087 1 12.3826 1.63214 11.2574 2.75736L11.9645 3.46447L11.2574 2.75736C10.1321 3.88258 9.5 5.4087 9.5 7V9H7.5C6.94772 9 6.5 9.44772 6.5 10V14C6.5 14.5523 6.94772 15 7.5 15H9.5V22C9.5 22.5523 9.94772 23 10.5 23H14.5C15.0523 23 15.5 22.5523 15.5 22V15H17.5C17.9589 15 18.3589 14.6877 18.4701 14.2425L19.4701 10.2425C19.5448 9.94379 19.4777 9.6273 19.2882 9.38459C19.0987 9.14187 18.8079 9 18.5 9H15.5V7H18.5C19.0523 7 19.5 6.55228 19.5 6V2Z" stroke="white" stroke-width="2" stroke-linecap="round" stroke-linejoin="round"/>
</svg>
