<svg width="25" height="24" viewBox="0 0 25 24" fill="none" xmlns="http://www.w3.org/2000/svg">
<path d="M9.5 10C10.6046 10 11.5 9.10457 11.5 8C11.5 6.89543 10.6046 6 9.5 6C8.39543 6 7.5 6.89543 7.5 8C7.5 9.10457 8.39543 10 9.5 10Z" stroke="white" stroke-width="2" stroke-linecap="round" stroke-linejoin="round"/>
<path d="M13.5 2H9.5C4.5 2 2.5 4 2.5 9V15C2.5 20 4.5 22 9.5 22H15.5C20.5 22 22.5 20 22.5 15V10" stroke="white" stroke-width="2" stroke-linecap="round" stroke-linejoin="round"/>
<path d="M18.5 8V2L20.5 4" stroke="white" stroke-width="2" stroke-linecap="round" stroke-linejoin="round"/>
<path d="M18.5 2L16.5 4" stroke="white" stroke-width="2" stroke-linecap="round" stroke-linejoin="round"/>
<path d="M3.16992 18.95L8.09992 15.64C8.88992 15.11 10.0299 15.17 10.7399 15.78L11.0699 16.07C11.8499 16.74 13.1099 16.74 13.8899 16.07L18.0499 12.5C18.8299 11.83 20.0899 11.83 20.8699 12.5L22.4999 13.9" stroke="white" stroke-width="2" stroke-linecap="round" stroke-linejoin="round"/>
</svg>
